<svg width="155" height="23" viewBox="0 0 155 23" fill="none" xmlns="http://www.w3.org/2000/svg">
<path d="M10.6406 4.99219H14.1953C15.0547 4.99219 15.8457 5.13216 16.5684 5.41211C17.291 5.69206 17.9193 6.09245 18.4531 6.61328C18.987 7.13411 19.4004 7.76237 19.6934 8.49805C19.9863 9.23372 20.1328 10.0605 20.1328 10.9785C20.1328 11.8639 19.9863 12.6647 19.6934 13.3809C19.4004 14.097 18.987 14.709 18.4531 15.2168C17.9193 15.7246 17.291 16.1152 16.5684 16.3887C15.8457 16.6556 15.0547 16.7891 14.1953 16.7891H10.6406C9.77474 16.7891 8.97721 16.6556 8.24805 16.3887C7.51888 16.1152 6.88411 15.7279 6.34375 15.2266C5.8099 14.7188 5.39323 14.11 5.09375 13.4004C4.80078 12.6842 4.6543 11.8835 4.6543 10.998C4.6543 10.0801 4.80078 9.25326 5.09375 8.51758C5.39323 7.7819 5.8099 7.15039 6.34375 6.62305C6.88411 6.0957 7.51888 5.69206 8.24805 5.41211C8.97721 5.13216 9.77474 4.99219 10.6406 4.99219ZM10.6406 7.74609C10.1198 7.74609 9.65104 7.86328 9.23438 8.09766C8.81771 8.33203 8.48893 8.6901 8.24805 9.17188C8.00716 9.64714 7.88672 10.2559 7.88672 10.998C7.88672 11.5124 7.95833 11.9616 8.10156 12.3457C8.24479 12.7298 8.44336 13.0456 8.69727 13.293C8.95117 13.5404 9.24414 13.7259 9.57617 13.8496C9.9082 13.9733 10.263 14.0352 10.6406 14.0352H14.2148C14.7227 14.0352 15.1784 13.9245 15.582 13.7031C15.9857 13.4753 16.3047 13.1335 16.5391 12.6777C16.7799 12.222 16.9004 11.6556 16.9004 10.9785C16.9004 10.4251 16.832 9.94661 16.6953 9.54297C16.5586 9.13932 16.3665 8.80404 16.1191 8.53711C15.8783 8.27018 15.5951 8.07161 15.2695 7.94141C14.944 7.8112 14.5924 7.74609 14.2148 7.74609H10.6406ZM14.0586 3.19531V18.5859H10.7676V3.19531H14.0586ZM25.0742 12.7559L30.1816 3.78125H33.6094V18H30.1816V9.03516L25.0742 18H21.6465V3.78125H25.0742V12.7559ZM45.5332 3.78125V6.42773H38.1895V3.78125H45.5332ZM47.8477 3.78125V18H44.4199V3.78125H47.8477ZM37.9551 3.78125H41.3633L40.9922 11.0078C40.9336 12.1016 40.8229 13.0456 40.6602 13.8398C40.4974 14.6276 40.2793 15.2917 40.0059 15.832C39.7324 16.3659 39.4036 16.7923 39.0195 17.1113C38.6354 17.4303 38.1895 17.6582 37.6816 17.7949C37.1803 17.9316 36.6172 18 35.9922 18H35.1621V15.3633L35.5332 15.3242C35.8327 15.2917 36.0964 15.2103 36.3242 15.0801C36.5521 14.9434 36.7474 14.7415 36.9102 14.4746C37.0794 14.2077 37.2194 13.8659 37.3301 13.4492C37.4408 13.0326 37.5286 12.528 37.5938 11.9355C37.6654 11.3366 37.7142 10.6367 37.7402 9.83594L37.9551 3.78125ZM52.1348 8.67383H55.1914C56.3438 8.67383 57.3464 8.86589 58.1992 9.25C59.0521 9.63411 59.7096 10.1712 60.1719 10.8613C60.6406 11.5514 60.875 12.3587 60.875 13.2832C60.875 13.9798 60.7415 14.6178 60.4746 15.1973C60.2077 15.7702 59.8236 16.2682 59.3223 16.6914C58.8275 17.1081 58.2318 17.4303 57.5352 17.6582C56.8385 17.8861 56.0573 18 55.1914 18H49.9961V3.78125H53.4336V15.3633H55.1914C55.6797 15.3633 56.0898 15.2689 56.4219 15.0801C56.7604 14.8913 57.0176 14.6406 57.1934 14.3281C57.3691 14.0091 57.457 13.6543 57.457 13.2637C57.457 12.8861 57.3691 12.5508 57.1934 12.2578C57.0176 11.9648 56.7604 11.7337 56.4219 11.5645C56.0898 11.3952 55.6797 11.3105 55.1914 11.3105H52.1348V8.67383ZM64.1465 3.78125H66.9395L70.1133 13.6738L73.2871 3.78125H76.0801L71.2461 18H68.9805L64.1465 3.78125ZM62.4473 3.78125H65.3379L65.875 14.6797V18H62.4473V3.78125ZM74.8887 3.78125H77.7891V18H74.3516V14.6797L74.8887 3.78125ZM92.0176 10.6074V11.1836C92.0176 12.2708 91.8646 13.2474 91.5586 14.1133C91.2591 14.9727 90.8327 15.7083 90.2793 16.3203C89.7259 16.9258 89.0716 17.3913 88.3164 17.7168C87.5612 18.0358 86.7279 18.1953 85.8164 18.1953C84.8984 18.1953 84.0586 18.0358 83.2969 17.7168C82.5417 17.3913 81.8841 16.9258 81.3242 16.3203C80.7708 15.7083 80.3411 14.9727 80.0352 14.1133C79.7357 13.2474 79.5859 12.2708 79.5859 11.1836V10.6074C79.5859 9.52018 79.7357 8.54362 80.0352 7.67773C80.3411 6.81185 80.7676 6.07617 81.3145 5.4707C81.8678 4.85872 82.5221 4.39323 83.2773 4.07422C84.0391 3.7487 84.8789 3.58594 85.7969 3.58594C86.7083 3.58594 87.5417 3.7487 88.2969 4.07422C89.0586 4.39323 89.7161 4.85872 90.2695 5.4707C90.8229 6.07617 91.2526 6.81185 91.5586 7.67773C91.8646 8.54362 92.0176 9.52018 92.0176 10.6074ZM88.541 11.1836V10.5879C88.541 9.88477 88.4792 9.26628 88.3555 8.73242C88.2383 8.19206 88.0625 7.73958 87.8281 7.375C87.5938 7.01042 87.304 6.73698 86.959 6.55469C86.6204 6.36589 86.2331 6.27148 85.7969 6.27148C85.3411 6.27148 84.944 6.36589 84.6055 6.55469C84.2669 6.73698 83.9837 7.01042 83.7559 7.375C83.528 7.73958 83.3555 8.19206 83.2383 8.73242C83.1276 9.26628 83.0723 9.88477 83.0723 10.5879V11.1836C83.0723 11.8802 83.1276 12.4987 83.2383 13.0391C83.3555 13.5729 83.528 14.0254 83.7559 14.3965C83.9902 14.7676 84.2767 15.0475 84.6152 15.2363C84.9603 15.4251 85.3607 15.5195 85.8164 15.5195C86.2526 15.5195 86.64 15.4251 86.9785 15.2363C87.3171 15.0475 87.6003 14.7676 87.8281 14.3965C88.0625 14.0254 88.2383 13.5729 88.3555 13.0391C88.4792 12.4987 88.541 11.8802 88.541 11.1836ZM99.8398 3.78125V18H96.4121V3.78125H99.8398ZM104.117 3.78125V6.42773H92.2324V3.78125H104.117ZM115.357 15.3633V18H107.779V15.3633H115.357ZM109 3.78125V18H105.572V3.78125H109ZM114.381 9.42578V11.9746H107.779V9.42578H114.381ZM115.387 3.78125V6.42773H107.779V3.78125H115.387ZM122.438 13.1758H118.902V10.5293H122.438C122.919 10.5293 123.31 10.4479 123.609 10.2852C123.909 10.1224 124.127 9.89779 124.264 9.61133C124.407 9.31836 124.479 8.98958 124.479 8.625C124.479 8.23438 124.407 7.87305 124.264 7.54102C124.127 7.20898 123.909 6.94206 123.609 6.74023C123.31 6.5319 122.919 6.42773 122.438 6.42773H120.191V18H116.764V3.78125H122.438C123.577 3.78125 124.557 3.98958 125.377 4.40625C126.204 4.82292 126.839 5.39583 127.281 6.125C127.724 6.84766 127.945 7.67448 127.945 8.60547C127.945 9.52344 127.724 10.3242 127.281 11.0078C126.839 11.6914 126.204 12.2253 125.377 12.6094C124.557 12.987 123.577 13.1758 122.438 13.1758ZM133.023 12.7559L138.131 3.78125H141.559V18H138.131V9.03516L133.023 18H129.596V3.78125H133.023V12.7559ZM151.061 13.0098H147.262L146.246 12.5898C145.087 12.2253 144.205 11.6849 143.6 10.9688C142.994 10.2461 142.691 9.32487 142.691 8.20508C142.691 7.22852 142.91 6.41471 143.346 5.76367C143.782 5.10612 144.4 4.61133 145.201 4.2793C146.002 3.94727 146.952 3.78125 148.053 3.78125H153.209V18H149.771V6.42773H148.053C147.369 6.42773 146.874 6.60677 146.568 6.96484C146.262 7.31641 146.109 7.83073 146.109 8.50781C146.109 9.02865 146.181 9.4388 146.324 9.73828C146.474 10.0378 146.692 10.2526 146.979 10.3828C147.265 10.5065 147.623 10.5684 148.053 10.5684H151.041L151.061 13.0098ZM148.424 11.7305L145.406 18H141.676L144.654 11.7305H148.424Z" fill="#827D7B"/>
<path d="M13.2135 10.7196L3.34347 3.62939L0 16.8429L13.2135 10.7196Z" fill="#827D7B"/>
<path d="M13.2135 10.8654L5.15955 10.5508L0 16.8429L13.2135 10.8654Z" fill="#424242"/>
<path d="M13.2137 10.865L4.82423 10.8513L3.46094 3.62904L13.2137 10.865Z" fill="#646464"/>
</svg>
