<svg width="247" height="38" viewBox="0 0 247 38" fill="none" xmlns="http://www.w3.org/2000/svg">
<path d="M16.625 9.1875H22.3125C23.6875 9.1875 24.9531 9.41146 26.1094 9.85938C27.2656 10.3073 28.2708 10.9479 29.125 11.7812C29.9792 12.6146 30.6406 13.6198 31.1094 14.7969C31.5781 15.974 31.8125 17.2969 31.8125 18.7656C31.8125 20.1823 31.5781 21.4635 31.1094 22.6094C30.6406 23.7552 29.9792 24.7344 29.125 25.5469C28.2708 26.3594 27.2656 26.9844 26.1094 27.4219C24.9531 27.849 23.6875 28.0625 22.3125 28.0625H16.625C15.2396 28.0625 13.9635 27.849 12.7969 27.4219C11.6302 26.9844 10.6146 26.3646 9.75 25.5625C8.89583 24.75 8.22917 23.776 7.75 22.6406C7.28125 21.4948 7.04688 20.2135 7.04688 18.7969C7.04688 17.3281 7.28125 16.0052 7.75 14.8281C8.22917 13.651 8.89583 12.6406 9.75 11.7969C10.6146 10.9531 11.6302 10.3073 12.7969 9.85938C13.9635 9.41146 15.2396 9.1875 16.625 9.1875ZM16.625 13.5938C15.7917 13.5938 15.0417 13.7812 14.375 14.1562C13.7083 14.5312 13.1823 15.1042 12.7969 15.875C12.4115 16.6354 12.2188 17.6094 12.2188 18.7969C12.2188 19.6198 12.3333 20.3385 12.5625 20.9531C12.7917 21.5677 13.1094 22.0729 13.5156 22.4688C13.9219 22.8646 14.3906 23.1615 14.9219 23.3594C15.4531 23.5573 16.0208 23.6562 16.625 23.6562H22.3438C23.1562 23.6562 23.8854 23.4792 24.5312 23.125C25.1771 22.7604 25.6875 22.2135 26.0625 21.4844C26.4479 20.7552 26.6406 19.849 26.6406 18.7656C26.6406 17.8802 26.5312 17.1146 26.3125 16.4688C26.0938 15.8229 25.7865 15.2865 25.3906 14.8594C25.0052 14.4323 24.5521 14.1146 24.0312 13.9062C23.5104 13.6979 22.9479 13.5938 22.3438 13.5938H16.625ZM22.0938 6.3125V30.9375H16.8281V6.3125H22.0938ZM39.7188 21.6094L47.8906 7.25H53.375V30H47.8906V15.6562L39.7188 30H34.2344V7.25H39.7188V21.6094ZM72.4531 7.25V11.4844H60.7031V7.25H72.4531ZM76.1562 7.25V30H70.6719V7.25H76.1562ZM60.3281 7.25H65.7812L65.1875 18.8125C65.0938 20.5625 64.9167 22.0729 64.6562 23.3438C64.3958 24.6042 64.0469 25.6667 63.6094 26.5312C63.1719 27.3854 62.6458 28.0677 62.0312 28.5781C61.4167 29.0885 60.7031 29.4531 59.8906 29.6719C59.0885 29.8906 58.1875 30 57.1875 30H55.8594V25.7812L56.4531 25.7188C56.9323 25.6667 57.3542 25.5365 57.7188 25.3281C58.0833 25.1094 58.3958 24.7865 58.6562 24.3594C58.9271 23.9323 59.151 23.3854 59.3281 22.7188C59.5052 22.0521 59.6458 21.2448 59.75 20.2969C59.8646 19.3385 59.9427 18.2188 59.9844 16.9375L60.3281 7.25ZM83.0156 15.0781H87.9062C89.75 15.0781 91.3542 15.3854 92.7188 16C94.0833 16.6146 95.1354 17.474 95.875 18.5781C96.625 19.6823 97 20.974 97 22.4531C97 23.5677 96.7865 24.5885 96.3594 25.5156C95.9323 26.4323 95.3177 27.2292 94.5156 27.9062C93.724 28.5729 92.7708 29.0885 91.6562 29.4531C90.5417 29.8177 89.2917 30 87.9062 30H79.5938V7.25H85.0938V25.7812H87.9062C88.6875 25.7812 89.3438 25.6302 89.875 25.3281C90.4167 25.026 90.8281 24.625 91.1094 24.125C91.3906 23.6146 91.5312 23.0469 91.5312 22.4219C91.5312 21.8177 91.3906 21.2812 91.1094 20.8125C90.8281 20.3438 90.4167 19.974 89.875 19.7031C89.3438 19.4323 88.6875 19.2969 87.9062 19.2969H83.0156V15.0781ZM102.234 7.25H106.703L111.781 23.0781L116.859 7.25H121.328L113.594 30H109.969L102.234 7.25ZM99.5156 7.25H104.141L105 24.6875V30H99.5156V7.25ZM119.422 7.25H124.062V30H118.562V24.6875L119.422 7.25ZM146.828 18.1719V19.0938C146.828 20.8333 146.583 22.3958 146.094 23.7812C145.615 25.1562 144.932 26.3333 144.047 27.3125C143.161 28.2812 142.115 29.026 140.906 29.5469C139.698 30.0573 138.365 30.3125 136.906 30.3125C135.438 30.3125 134.094 30.0573 132.875 29.5469C131.667 29.026 130.615 28.2812 129.719 27.3125C128.833 26.3333 128.146 25.1562 127.656 23.7812C127.177 22.3958 126.938 20.8333 126.938 19.0938V18.1719C126.938 16.4323 127.177 14.8698 127.656 13.4844C128.146 12.099 128.828 10.9219 129.703 9.95312C130.589 8.97396 131.635 8.22917 132.844 7.71875C134.062 7.19792 135.406 6.9375 136.875 6.9375C138.333 6.9375 139.667 7.19792 140.875 7.71875C142.094 8.22917 143.146 8.97396 144.031 9.95312C144.917 10.9219 145.604 12.099 146.094 13.4844C146.583 14.8698 146.828 16.4323 146.828 18.1719ZM141.266 19.0938V18.1406C141.266 17.0156 141.167 16.026 140.969 15.1719C140.781 14.3073 140.5 13.5833 140.125 13C139.75 12.4167 139.286 11.9792 138.734 11.6875C138.193 11.3854 137.573 11.2344 136.875 11.2344C136.146 11.2344 135.51 11.3854 134.969 11.6875C134.427 11.9792 133.974 12.4167 133.609 13C133.245 13.5833 132.969 14.3073 132.781 15.1719C132.604 16.026 132.516 17.0156 132.516 18.1406V19.0938C132.516 20.2083 132.604 21.1979 132.781 22.0625C132.969 22.9167 133.245 23.6406 133.609 24.2344C133.984 24.8281 134.443 25.276 134.984 25.5781C135.536 25.8802 136.177 26.0312 136.906 26.0312C137.604 26.0312 138.224 25.8802 138.766 25.5781C139.307 25.276 139.76 24.8281 140.125 24.2344C140.5 23.6406 140.781 22.9167 140.969 22.0625C141.167 21.1979 141.266 20.2083 141.266 19.0938ZM159.344 7.25V30H153.859V7.25H159.344ZM166.188 7.25V11.4844H147.172V7.25H166.188ZM184.172 25.7812V30H172.047V25.7812H184.172ZM174 7.25V30H168.516V7.25H174ZM182.609 16.2812V20.3594H172.047V16.2812H182.609ZM184.219 7.25V11.4844H172.047V7.25H184.219ZM195.5 22.2812H189.844V18.0469H195.5C196.271 18.0469 196.896 17.9167 197.375 17.6562C197.854 17.3958 198.203 17.0365 198.422 16.5781C198.651 16.1094 198.766 15.5833 198.766 15C198.766 14.375 198.651 13.7969 198.422 13.2656C198.203 12.7344 197.854 12.3073 197.375 11.9844C196.896 11.651 196.271 11.4844 195.5 11.4844H191.906V30H186.422V7.25H195.5C197.323 7.25 198.891 7.58333 200.203 8.25C201.526 8.91667 202.542 9.83333 203.25 11C203.958 12.1562 204.312 13.4792 204.312 14.9688C204.312 16.4375 203.958 17.7188 203.25 18.8125C202.542 19.9062 201.526 20.7604 200.203 21.375C198.891 21.9792 197.323 22.2812 195.5 22.2812ZM212.438 21.6094L220.609 7.25H226.094V30H220.609V15.6562L212.438 30H206.953V7.25H212.438V21.6094ZM241.297 22.0156H235.219L233.594 21.3438C231.74 20.7604 230.328 19.8958 229.359 18.75C228.391 17.5938 227.906 16.1198 227.906 14.3281C227.906 12.7656 228.255 11.4635 228.953 10.4219C229.651 9.36979 230.641 8.57812 231.922 8.04688C233.203 7.51562 234.724 7.25 236.484 7.25H244.734V30H239.234V11.4844H236.484C235.391 11.4844 234.599 11.7708 234.109 12.3438C233.62 12.9062 233.375 13.7292 233.375 14.8125C233.375 15.6458 233.49 16.3021 233.719 16.7812C233.958 17.2604 234.307 17.6042 234.766 17.8125C235.224 18.0104 235.797 18.1094 236.484 18.1094H241.266L241.297 22.0156ZM237.078 19.9688L232.25 30H226.281L231.047 19.9688H237.078Z" fill="white"/>
<path d="M21 19.2683L5.31373 8L0 29L21 19.2683Z" fill="#EC8F32"/>
<path d="M21 19.5L8.2 19L0 29L21 19.5Z" fill="#DA6D00"/>
<path d="M21 19.5L7.66667 19.4783L5.5 8.00001L21 19.5Z" fill="#EC8117"/>
</svg>
