<svg width="54" height="57" viewBox="0 0 54 57" fill="none" xmlns="http://www.w3.org/2000/svg">
<path fill-rule="evenodd" clip-rule="evenodd" d="M6.84868 0.0627804C4.00907 0.389748 1.51824 2.32107 0.510688 4.97719C0.386763 5.30382 0.22655 5.82557 0.154603 6.13665L0.0237736 6.70224L0.00483102 21.6338C-0.00823477 31.9567 0.00494514 36.8185 0.0475088 37.3855C0.242697 39.9825 1.0902 41.9887 2.64138 43.5255C4.03184 44.9031 5.60618 45.6391 7.97993 46.0211C8.52008 46.1081 9.38499 46.1194 16.7817 46.137C23.4379 46.1528 24.9885 46.1427 25.0061 46.0836C25.5145 44.3781 26.0675 43.1959 26.8861 42.0648L27.2027 41.6274H18.2031C12.2469 41.6274 9.04009 41.6073 8.72012 41.5678C6.20932 41.2586 4.91985 39.9807 4.61535 37.5001C4.57678 37.1859 4.55652 33.176 4.55652 25.857C4.55652 15.2463 4.56148 14.6953 4.65637 14.736C5.03807 14.8994 5.72919 15.119 6.19882 15.226L6.75317 15.3523L19.8047 15.3693L32.8562 15.3864V26.4383V37.4902L33.2128 37.3514C34.0136 37.0396 34.8513 36.8193 36.3081 36.5371C36.8102 36.4399 37.266 36.3476 37.3209 36.3318C37.4156 36.3047 37.4207 35.6488 37.4207 23.5813V10.8593L22.4007 10.8585C5.73415 10.8576 7.03851 10.8884 6.24555 10.4766C5.23737 9.95319 4.55823 8.83236 4.55823 7.69202C4.55823 6.54743 5.23315 5.43362 6.24555 4.90756C7.03463 4.49751 5.98286 4.52647 20.1185 4.52557L32.8562 4.52472V2.26236V0L20.0615 0.00735266C13.0243 0.0113684 7.07856 0.0363109 6.84868 0.0627804ZM41.058 32.479C41.043 46.9095 41.0365 47.7921 40.94 48.2659C40.3963 50.9355 38.9606 52.3706 36.7327 52.4715C35.8888 52.5097 35.2872 52.3997 34.6461 52.09C33.8244 51.6929 33.3258 51.1272 33.0043 50.2268C32.8485 49.7904 32.8319 49.6778 32.833 49.0649C32.8354 47.8388 33.137 47.112 33.995 46.2652C34.7696 45.5007 35.6098 45.0613 36.9309 44.7297L37.4207 44.6068V42.3252C37.4207 40.9974 37.3991 40.0437 37.369 40.0437C37.3405 40.0437 36.9361 40.1193 36.4703 40.2117C32.6536 40.9684 29.8711 43.1564 28.7823 46.2571C28.4421 47.2263 28.3261 47.9495 28.3278 49.0932C28.3294 50.1966 28.4288 50.8128 28.7535 51.7338C29.1673 52.9073 29.7393 53.8113 30.6288 54.6979C31.2773 55.3441 31.8518 55.7585 32.6326 56.1431C34.9217 57.2706 37.9421 57.2866 40.3263 56.184C42.8061 55.0371 44.6349 52.5964 45.2982 49.5482C45.6169 48.0841 45.6005 48.642 45.6215 38.525L45.6409 29.1728L46.1095 29.6172C47.1889 30.6406 47.9907 31.2759 50.2868 32.9268C52.0339 34.1828 52.8417 34.8092 53.4395 35.3712L53.8538 35.7606L53.8391 32.8299L53.8243 29.8993L52.5614 28.9904C50.7857 27.7124 50.0594 27.1246 49.1697 26.2454C48.051 25.1398 47.4333 24.2972 46.834 23.059C46.1171 21.5777 45.7404 19.975 45.6563 18.0483L45.619 17.1939H43.3464H41.0739L41.058 32.479Z" fill="white"/>
</svg>
