<svg width="51" height="56" viewBox="0 0 51 56" fill="none" xmlns="http://www.w3.org/2000/svg">
<path d="M2 48.2222V11.2444C2 8.00859 2 6.39066 2.64034 5.15472C3.20359 4.06756 4.10235 3.18368 5.20781 2.62974C6.46454 2 8.10969 2 11.4 2H39.6C42.8903 2 44.5355 2 45.7922 2.62974C46.8976 3.18368 47.7964 4.06756 48.3597 5.15472C49 6.39066 49 8.00859 49 11.2444V42.4444H7.875C4.63033 42.4444 2 45.0312 2 48.2222ZM2 48.2222C2 51.4132 4.63033 54 7.875 54H49M16.6875 16.5556H34.3125M16.6875 28.1111H34.3125M46.0625 42.4444V54" stroke="white" stroke-width="3.4" stroke-linecap="round" stroke-linejoin="round"/>
</svg>
