<svg width="18" height="18" viewBox="0 0 18 18" fill="none" xmlns="http://www.w3.org/2000/svg">
<path d="M9 5V10M9 13H9.01M1.93726 13.4928C1.59135 13.1469 1.4184 12.974 1.29472 12.7721C1.18506 12.5932 1.10425 12.3981 1.05526 12.194C1 11.9638 1 11.7193 1 11.2301V6.76993C1 6.28075 1 6.03616 1.05526 5.80598C1.10425 5.60191 1.18506 5.40682 1.29472 5.22787C1.4184 5.02604 1.59135 4.85309 1.93726 4.50719L4.50719 1.93726C4.85309 1.59135 5.02604 1.4184 5.22787 1.29472C5.40682 1.18506 5.60191 1.10425 5.80598 1.05526C6.03616 1 6.28075 1 6.76993 1H11.2301C11.7193 1 11.9638 1 12.194 1.05526C12.3981 1.10425 12.5932 1.18506 12.7721 1.29472C12.974 1.4184 13.1469 1.59135 13.4928 1.93726L16.0627 4.50719C16.4086 4.85309 16.5816 5.02604 16.7053 5.22787C16.8149 5.40682 16.8957 5.60191 16.9447 5.80598C17 6.03616 17 6.28075 17 6.76993V11.2301C17 11.7193 17 11.9638 16.9447 12.194C16.8957 12.3981 16.8149 12.5932 16.7053 12.7721C16.5816 12.974 16.4086 13.1469 16.0627 13.4928L13.4928 16.0627C13.1469 16.4086 12.974 16.5816 12.7721 16.7053C12.5932 16.8149 12.3981 16.8957 12.194 16.9447C11.9638 17 11.7193 17 11.2301 17H6.76993C6.28075 17 6.03616 17 5.80598 16.9447C5.60191 16.8957 5.40682 16.8149 5.22787 16.7053C5.02604 16.5816 4.85309 16.4086 4.50719 16.0627L1.93726 13.4928Z" stroke="white" stroke-width="2" stroke-linecap="round" stroke-linejoin="round"/>
</svg>
