<svg width="21" height="20" viewBox="0 0 21 20" fill="none" xmlns="http://www.w3.org/2000/svg">
<path fill-rule="evenodd" clip-rule="evenodd" d="M10.5001 -8.27047e-05C13.143 -0.00210902 15.6894 0.951347 17.631 2.66991C19.5726 4.38847 20.7664 6.74567 20.974 9.27086C21.1817 11.796 20.3879 14.3034 18.7512 16.2922C17.1145 18.2811 14.7554 19.6051 12.1448 19.9999V12.9681H14.5826L15.0492 10.0614H12.1448V8.17208C12.1233 7.95555 12.1532 7.73716 12.2323 7.53327C12.3113 7.32939 12.4375 7.14528 12.6013 6.99474C12.7651 6.8442 12.9623 6.73111 13.1782 6.66396C13.394 6.59681 13.6229 6.57732 13.8478 6.60696H15.1658V4.12513C14.3938 4.00956 13.6143 3.94605 12.833 3.93508C12.2917 3.8963 11.7481 3.97185 11.2406 4.15639C10.7331 4.34094 10.2741 4.62998 9.89585 5.00313C9.51764 5.37628 9.22948 5.82443 9.05172 6.31597C8.87395 6.8075 8.81091 7.33044 8.86704 7.84788V10.0838H6.19588V12.9904H8.85538V20.0223C6.21008 19.6635 3.80701 18.3517 2.13576 16.354C0.464516 14.3563 -0.349154 11.823 -0.139472 9.27036C0.07021 6.7177 1.28747 4.33769 3.2643 2.61524C5.24112 0.892794 7.82878 -0.0425001 10.5001 -8.27047e-05Z" fill="#787878"/>
</svg>
