<svg width="20" height="20" viewBox="0 0 20 20" fill="none" xmlns="http://www.w3.org/2000/svg">
<g clip-path="url(#clip0_359_1830)">
<path d="M10 1.8C7.3375 1.8 7.025 1.8 5.9625 1.8C5.32923 1.79846 4.70144 1.91723 4.1125 2.15C3.67504 2.29896 3.28037 2.55207 2.9625 2.8875C2.62869 3.20913 2.37224 3.60235 2.2125 4.0375C1.99318 4.63458 1.87489 5.26403 1.8625 5.9C1.8625 6.95 1.8625 7.2625 1.8625 9.9375C1.8625 12.6125 1.8625 12.925 1.8625 13.975C1.87202 14.6113 1.9904 15.2412 2.2125 15.8375C2.37224 16.2727 2.62869 16.6659 2.9625 16.9875C3.28299 17.3227 3.67655 17.5793 4.1125 17.7375C4.70426 17.9589 5.3307 18.0731 5.9625 18.075C7.025 18.075 7.3375 18.075 10 18.075C12.6625 18.075 12.9875 18.075 14.0375 18.075C14.6735 18.0741 15.3042 17.9598 15.9 17.7375C16.3344 17.5762 16.7273 17.32 17.05 16.9875C17.3838 16.6659 17.6403 16.2727 17.8 15.8375C18.0223 15.2417 18.1366 14.611 18.1375 13.975C18.1375 12.925 18.1375 12.6125 18.1375 9.9375C18.1375 7.2625 18.1375 6.95 18.1375 5.9C18.1337 5.2643 18.0195 4.6341 17.8 4.0375C17.6358 3.6046 17.38 3.21231 17.05 2.8875C16.73 2.5547 16.336 2.30204 15.9 2.15C15.3055 1.92159 14.6744 1.803 14.0375 1.8C12.9875 1.8125 12.675 1.8 10 1.8ZM10 0C12.7125 0 13.0625 0 14.125 0C14.9537 0.0156192 15.7737 0.172014 16.55 0.4625C17.218 0.712769 17.8236 1.10515 18.325 1.6125C18.8256 2.11936 19.217 2.72346 19.475 3.3875C19.7939 4.17965 19.9716 5.02154 20 5.875C20 6.9375 20.0625 7.2875 20.0625 10C20.0625 12.7125 20.0625 13.05 20 14.125C19.9844 14.9537 19.828 15.7737 19.5375 16.55C19.2872 17.218 18.8949 17.8236 18.3875 18.325C17.8827 18.8282 17.278 19.2199 16.6125 19.475C15.8203 19.7939 14.9785 19.9716 14.125 20C13.05 20 12.7125 20.0625 10 20.0625C7.2875 20.0625 6.95 20 5.875 20C5.0463 19.9844 4.22628 19.828 3.45 19.5375C2.78204 19.2872 2.17641 18.8948 1.675 18.3875C1.1744 17.8806 0.78301 17.2765 0.525 16.6125C0.234514 15.8362 0.0781192 15.0162 0.0625 14.1875C0.0625 13.1125 0.0625 12.775 0.0625 10.0625C0.0625 7.35 0.0625 7 0.0625 5.9375C0.0781192 5.1088 0.234514 4.28878 0.525 3.5125C0.772345 2.84307 1.16511 2.23684 1.675 1.7375C2.17641 1.23015 2.78204 0.837769 3.45 0.5875C4.21847 0.253474 5.03887 0.0547181 5.875 0C6.95 0 7.2875 0 10 0Z" fill="#787878"/>
<path d="M10 4.86232C11.0166 4.85985 12.0111 5.15905 12.8576 5.72206C13.7041 6.28507 14.3646 7.08657 14.7553 8.02511C15.1461 8.96364 15.2496 9.99701 15.0528 10.9944C14.856 11.9918 14.3677 12.9084 13.6497 13.6281C12.9317 14.3479 12.0163 14.8384 11.0194 15.0377C10.0225 15.2369 8.98885 15.1359 8.04936 14.7474C7.10988 14.359 6.30677 13.7005 5.7417 12.8554C5.17663 12.0102 4.875 11.0165 4.875 9.99982C4.875 8.63943 5.41455 7.33458 6.37532 6.37147C7.33608 5.40836 8.63962 4.86563 10 4.86232ZM10 13.3373C10.6606 13.3398 11.3071 13.1462 11.8576 12.7809C12.4081 12.4157 12.8378 11.8953 13.0923 11.2857C13.3469 10.6761 13.4148 10.0046 13.2874 9.3564C13.16 8.70817 12.8431 8.11232 12.3769 7.64431C11.9106 7.1763 11.316 6.85719 10.6682 6.72739C10.0205 6.5976 9.34878 6.66296 8.7382 6.91519C8.12762 7.16743 7.60563 7.5952 7.23835 8.14431C6.87107 8.69343 6.675 9.33919 6.675 9.99982C6.67499 10.8828 7.02491 11.7298 7.64811 12.3554C8.27131 12.9809 9.11701 13.334 10 13.3373Z" fill="#787878"/>
<path d="M4.66309 5.8623C4.41586 5.8623 4.17419 5.78899 3.96862 5.65164C3.76306 5.51429 3.60285 5.31907 3.50824 5.09066C3.41363 4.86225 3.38887 4.61092 3.4371 4.36844C3.48534 4.12597 3.60439 3.90324 3.7792 3.72842C3.95402 3.55361 4.17675 3.43456 4.41922 3.38632C4.6617 3.33809 4.91303 3.36285 5.14144 3.45746C5.36985 3.55207 5.56507 3.71228 5.70242 3.91784C5.83978 4.1234 5.91309 4.36508 5.91309 4.61231C5.91309 4.94383 5.78139 5.26177 5.54697 5.49619C5.31255 5.73061 4.99461 5.8623 4.66309 5.8623Z" fill="#787878"/>
</g>
<defs>
<clipPath id="clip0_359_1830">
<rect width="20" height="20" fill="white"/>
</clipPath>
</defs>
</svg>
