<svg width="306" height="301" viewBox="0 0 306 301" fill="none" xmlns="http://www.w3.org/2000/svg">
<path d="M3 264.47V114.766C3 103.555 8.57004 93.0861 17.8433 86.8675L134.51 8.63132C145.707 1.12289 160.293 1.1229 171.49 8.63132L288.157 86.8675C297.43 93.0861 303 103.555 303 114.766V264.47M3 264.47C3 282.988 17.9238 298 36.3333 298H269.667C288.076 298 303 282.988 303 264.47M3 264.47L115.5 189.028M303 264.47L190.5 189.028M3 113.586L115.5 189.028M303 113.586L190.5 189.028M190.5 189.028L171.49 201.776C160.293 209.285 145.707 209.285 134.51 201.776L115.5 189.028" stroke="#EC8F32" stroke-width="5" stroke-linecap="round" stroke-linejoin="round"/>
</svg>
