<svg width="80" height="80" viewBox="0 0 80 80" fill="none" xmlns="http://www.w3.org/2000/svg">
<path fill-rule="evenodd" clip-rule="evenodd" d="M39.744 0C41.3537 0 43.3542 0.0624381 44.1825 0.140486C45.0265 0.234143 46.3081 0.421457 47.0426 0.546333C47.7772 0.686819 48.9337 0.920962 49.6214 1.09267C50.309 1.26437 51.8563 1.73266 53.0597 2.1229C54.3256 2.54435 56.3417 3.40288 57.8265 4.15213C59.2487 4.85456 61.2179 5.97845 62.2338 6.64966C63.234 7.32087 64.7344 8.44475 65.594 9.14718C66.4379 9.834 67.8289 11.1452 68.6885 12.0349C69.5637 12.9091 70.7358 14.2359 71.3297 14.9695C71.9236 15.7032 72.8457 16.9676 73.3771 17.7792C73.9085 18.5909 74.7368 19.9646 75.2213 20.8231C75.6901 21.6816 76.3934 23.1177 76.7842 24.0231C77.1592 24.9284 77.6906 26.302 77.9563 27.0669C78.222 27.8318 78.6284 29.1742 78.8472 30.0327C79.066 30.8912 79.3942 32.4366 79.5661 33.4668C79.8005 34.7936 79.9255 36.3546 79.9724 38.7741C80.035 40.9594 79.9881 42.895 79.863 44.0813C79.7693 45.1115 79.5348 46.6569 79.3785 47.5154C79.2066 48.3739 78.894 49.7476 78.6752 50.5592C78.4564 51.3709 77.9719 52.8538 77.5969 53.8372C77.2218 54.8206 76.6435 56.2255 76.3153 56.9592C75.9715 57.6928 75.2838 58.9884 74.7993 59.8469C74.2992 60.7054 73.424 62.0791 72.8613 62.8908C72.2831 63.7025 71.3141 64.9668 70.6889 65.7005C70.0794 66.4341 68.876 67.6985 68.032 68.5258C67.1881 69.3531 66.0472 70.4146 65.4846 70.8672C64.9219 71.3355 63.7966 72.1784 62.984 72.756C62.1713 73.3179 60.7959 74.1921 59.9363 74.6916C59.0768 75.1755 57.7796 75.8623 57.045 76.2057C56.3105 76.5335 55.0133 77.0798 54.1537 77.4076C53.2941 77.7354 51.95 78.1881 51.1842 78.4066C50.4184 78.6252 48.9337 78.9998 47.9022 79.2183C46.1518 79.6086 45.6985 79.6398 40.8692 79.7022C36.5557 79.7647 35.4304 79.7334 33.9926 79.5149C33.0392 79.3744 31.5389 79.0779 30.6324 78.8593C29.7259 78.6408 28.2881 78.2349 27.4285 77.954C26.5689 77.6574 25.0998 77.0954 24.1465 76.7052C23.1931 76.2993 21.724 75.5813 20.8644 75.113C20.0048 74.6291 18.6295 73.8018 17.8168 73.2711C17.0041 72.7404 15.7382 71.8194 15.0036 71.2263C14.2691 70.6331 12.9406 69.4624 12.0654 68.5882C11.1746 67.7297 9.86176 66.3405 9.17409 65.4976C8.47079 64.639 7.34552 63.1405 6.67349 62.1415C6.00145 61.1269 4.87618 59.1601 4.17288 57.7396C3.4227 56.2567 2.56312 54.2431 2.14114 52.9787C1.75042 51.7768 1.28156 50.2314 1.10964 49.5446C0.937726 48.8578 0.703295 47.7027 0.562636 46.9691C0.437606 46.2354 0.25006 44.9554 0.156288 44.1125C0.0781439 43.2852 0 41.4121 0 39.9448C0 38.4931 0.0781439 36.6043 0.156288 35.7614C0.25006 34.9341 0.437606 33.6541 0.562636 32.9205C0.703295 32.1868 0.968984 30.9225 1.17216 30.1108C1.37533 29.2991 1.8442 27.785 2.18803 26.7547C2.54749 25.7245 3.39144 23.7577 4.06348 22.3841C4.73552 21.0104 5.62636 19.3558 6.03271 18.7158C6.43905 18.0758 7.37678 16.7334 8.11133 15.75C8.87714 14.7354 10.4244 12.9715 11.7216 11.6915C13.0031 10.3959 14.7692 8.8506 15.7851 8.08573C16.7697 7.35209 18.1137 6.41551 18.7545 6.00967C19.3953 5.60382 21.052 4.71408 22.4273 4.04287C23.8026 3.37166 25.7718 2.52874 26.8033 2.16972C27.8348 1.82631 29.3508 1.35803 30.1635 1.1551C30.9762 0.952181 32.289 0.67121 33.0549 0.530724C33.8207 0.405848 34.9928 0.234143 35.6336 0.156095C36.2744 0.0780476 38.1186 0.0156095 39.7283 0L39.744 0ZM35.4148 11.473C34.5552 11.5979 33.1174 11.9257 32.2109 12.1754C31.3044 12.4408 30.1166 12.831 29.554 13.0496C28.9914 13.2681 27.8661 13.7832 27.0534 14.1891C26.2407 14.5949 25.2405 15.1256 24.8341 15.3754L24.0996 15.8281L64.1717 55.8665C65.3126 53.9933 65.8909 52.9163 66.1879 52.2763C66.4848 51.6363 66.9537 50.5124 67.2194 49.7788C67.485 49.0451 67.8758 47.7495 68.0946 46.891C68.2977 46.0325 68.5791 44.534 68.7041 43.5818C68.8291 42.614 68.9385 40.975 68.9385 39.9448C68.9385 38.9145 68.8291 37.2443 68.7041 36.2453C68.5634 35.2307 68.2509 33.6385 68.0164 32.6863C67.7664 31.7342 67.2662 30.2356 66.9224 29.3303C66.5629 28.4249 65.9847 27.1606 65.6408 26.5206C65.297 25.8806 64.5625 24.6787 64.0155 23.867C63.4684 23.0553 62.4682 21.7441 61.7962 20.9792C61.1241 20.2143 59.9363 19.028 59.1705 18.3412C58.3891 17.67 57.2326 16.749 56.5918 16.2963C55.951 15.8437 54.7945 15.1256 54.013 14.6886C53.2472 14.2515 51.8406 13.5803 50.8873 13.19C49.9496 12.8154 48.4961 12.3159 47.6834 12.0974C46.8707 11.8788 45.5266 11.5823 44.7139 11.4574C43.9012 11.3169 42.0414 11.1764 40.5723 11.1452C39.1188 11.114 37.7122 11.1296 37.4465 11.1608C37.1965 11.192 36.2744 11.3325 35.4148 11.473ZM15.535 24.6787C15.1912 25.225 14.6129 26.224 14.2691 26.9108C13.9252 27.5976 13.472 28.581 13.2532 29.0962C13.0344 29.6113 12.6906 30.5947 12.4718 31.2815C12.253 31.9683 11.9404 33.2015 11.7685 34.0131C11.5965 34.8248 11.3621 36.339 11.2527 37.3692C11.1433 38.4775 11.1121 40.0384 11.1589 41.1935C11.2215 42.2706 11.3777 43.8159 11.5028 44.6276C11.6434 45.4393 11.9248 46.7817 12.1436 47.5934C12.3624 48.4051 12.8625 49.8412 13.2376 50.7934C13.6283 51.7456 14.3003 53.1504 14.7379 53.9153C15.1755 54.6802 15.8945 55.8509 16.3477 56.4909C16.8009 57.1309 17.723 58.286 18.3951 59.0664C19.0827 59.8313 20.2705 61.0176 21.0363 61.6888C21.8178 62.3601 23.115 63.3591 23.9277 63.9054C24.7403 64.4517 25.9438 65.1854 26.5845 65.5288C27.2253 65.8722 28.4913 66.4497 29.3977 66.8088C30.3042 67.1522 31.8202 67.6517 32.7579 67.9014C33.7113 68.1356 35.3054 68.4478 36.3213 68.5882C37.3215 68.7131 39.0094 68.8224 40.0722 68.8224C41.1193 68.8224 42.7134 68.7131 43.6199 68.6039C44.5264 68.479 45.9017 68.2292 46.6675 68.0419C47.449 67.8702 48.7149 67.4956 49.4807 67.2302C50.2621 66.9649 51.4187 66.4966 52.0594 66.2C52.7002 65.919 53.888 65.2946 54.6851 64.8263C55.4665 64.3581 56.1542 63.9366 56.1854 63.8742C56.2323 63.7961 47.2458 54.7426 36.2275 43.7223L16.1914 23.6796L15.535 24.6787Z" fill="black"/>
</svg>
