<svg width="25" height="25" viewBox="0 0 25 25" fill="none" xmlns="http://www.w3.org/2000/svg">
<path d="M2.28882e-05 12.4764C-0.0128451 19.3635 5.67734 24.9952 12.6546 25C15.9234 25.0023 18.9034 23.7821 21.1513 21.7771C21.4115 21.545 21.4219 21.1449 21.1739 20.9001L20.3078 20.0453C20.0766 19.817 19.7065 19.8104 19.4625 20.0254C17.6573 21.6151 15.2757 22.5806 12.6637 22.5806C7.01872 22.5806 2.45106 18.0712 2.45106 12.5C2.45106 6.92797 7.01959 2.41935 12.6637 2.41935C15.4988 2.41935 18.0615 3.55716 19.9108 5.39531L17.404 7.83548C17.0139 8.21527 17.2863 8.87097 17.8343 8.87097H24.3872C24.7256 8.87097 25 8.60015 25 8.26613V1.88725C25 1.3504 24.3442 1.07964 23.957 1.4566L21.6542 3.69824C19.3599 1.41467 16.1794 0 12.6637 0C5.6777 0 0.0129419 5.58372 2.28882e-05 12.4764Z" fill="white"/>
</svg>
