<svg width="16" height="15" viewBox="0 0 16 15" fill="none" xmlns="http://www.w3.org/2000/svg">
<path d="M7.63202 7.50217H2.56582M2.42222 8.1747L1.58522 10.7067C1.1268 12.0934 0.897588 12.7868 1.06208 13.2138C1.20493 13.5846 1.51173 13.8657 1.8903 13.9727C2.32623 14.0959 2.98467 13.7959 4.30154 13.1957L12.7439 9.34847C14.0292 8.76271 14.6719 8.46984 14.8706 8.06297C15.0431 7.7095 15.0431 7.29476 14.8706 6.94128C14.6719 6.53442 14.0292 6.24154 12.7439 5.65579L4.28697 1.8019C2.97408 1.2036 2.31763 0.904447 1.88213 1.02716C1.50391 1.13374 1.19714 1.41412 1.0538 1.78423C0.888749 2.21041 1.11551 2.90229 1.56903 4.28603L2.42385 6.89417C2.50174 7.13183 2.54069 7.25066 2.55607 7.37219C2.56971 7.48004 2.56957 7.58921 2.55565 7.69702C2.53997 7.81851 2.50072 7.93724 2.42222 8.1747Z" stroke="white" stroke-width="1.4" stroke-linecap="round" stroke-linejoin="round"/>
</svg>
