<svg width="16" height="21" viewBox="0 0 16 21" fill="none" xmlns="http://www.w3.org/2000/svg">
<path d="M15 1.12336V19.8766M1 4.36307V16.6369C1 18.1912 1 18.9683 1.32141 19.3892C1.60129 19.7556 2.02821 19.9789 2.48755 19.9991C3.01505 20.0223 3.64876 19.5767 4.91618 18.6854L12.1863 13.5727C13.6562 12.539 14.3911 12.0222 14.6501 11.3783C14.8767 10.8149 14.8767 10.1851 14.6501 9.62174C14.3911 8.97785 13.6562 8.46101 12.1863 7.42734L4.91617 2.31463C3.64876 1.42332 3.01505 0.977671 2.48755 1.00086C2.02821 1.02105 1.60129 1.24436 1.32141 1.61084C1 2.03169 1 2.80881 1 4.36307Z" stroke="white" stroke-width="2" stroke-linecap="round" stroke-linejoin="round"/>
</svg>
