<svg width="58" height="47" viewBox="0 0 58 47" fill="none" xmlns="http://www.w3.org/2000/svg">
<path d="M57.7297 4.58881C57.9089 5.18185 58 5.79728 58 6.41596V39.1299C58 42.6722 55.0785 45.5441 51.475 45.5441C50.8454 45.5441 50.2193 45.4546 49.6158 45.2781L33.6255 40.604C31.7196 44.4383 27.7194 47 23.2 47C16.9876 47 11.9159 42.1996 11.6142 36.1662L11.6 35.5969L11.5971 34.1695L4.66584 32.1434C1.89793 31.3347 0 28.8337 0 25.9952V19.5467C0 16.708 1.8982 14.2069 4.66633 13.3983L49.6164 0.267419C53.0706 -0.741673 56.7031 1.19307 57.7297 4.58881ZM15.9471 35.4409L15.95 35.5969C15.95 39.533 19.1959 42.7238 23.2 42.7238C25.7671 42.7238 28.0671 41.4005 29.359 39.3616L15.9471 35.4409ZM50.8556 4.36644L5.90544 17.4973C4.98272 17.7669 4.35 18.6005 4.35 19.5467V25.9952C4.35 26.9413 4.98264 27.7749 5.90527 28.0446L50.8553 41.1793C51.0565 41.238 51.265 41.2679 51.475 41.2679C52.6762 41.2679 53.65 40.3106 53.65 39.1299V6.41596C53.65 6.20973 53.6196 6.00459 53.5598 5.80689C53.2176 4.67498 52.0069 4.03008 50.8556 4.36644Z" fill="white"/>
</svg>
