<svg width="13" height="13" viewBox="0 0 13 13" fill="none" xmlns="http://www.w3.org/2000/svg">
<path d="M5.582 1.69095C5.88137 0.769684 7.18471 0.769684 7.48409 1.69095L8.10479 3.60103C8.23867 4.01302 8.6226 4.29196 9.0558 4.29198L11.0642 4.29206C12.0329 4.29209 12.4356 5.53164 11.652 6.10105L10.0272 7.28163C9.67674 7.53627 9.53009 7.9876 9.66394 8.3996L10.2845 10.3097C10.5838 11.231 9.52938 11.9971 8.74568 11.4278L7.1208 10.2473C6.77032 9.99269 6.29576 9.99269 5.94529 10.2473L4.32041 11.4278C3.5367 11.9971 2.48228 11.231 2.78158 10.3097L3.40214 8.3996C3.53599 7.9876 3.38935 7.53627 3.03889 7.28162L1.4141 6.10105C0.63044 5.53164 1.03319 4.29209 2.00188 4.29206L4.01029 4.29198C4.44349 4.29196 4.82741 4.01302 4.96129 3.60103L5.582 1.69095Z" stroke="#EC8F32"/>
</svg>
