<svg width="51" height="17" viewBox="0 0 51 17" fill="none" xmlns="http://www.w3.org/2000/svg">
<path d="M22.1001 16.3035H17.9688L20.5528 0.289062H24.6839L22.1001 16.3035Z" fill="#00579F"/>
<path d="M37.0765 0.681799C36.2617 0.357769 34.9692 0 33.371 0C29.2912 0 26.4182 2.18058 26.4006 5.29814C26.3667 7.59828 28.4575 8.87583 30.0214 9.64277C31.6197 10.4265 32.1631 10.938 32.1631 11.6365C32.1468 12.7094 30.8715 13.2039 29.682 13.2039C28.0326 13.2039 27.1488 12.949 25.8057 12.3521L25.2617 12.0962L24.6836 15.6911C25.6526 16.1336 27.4378 16.5262 29.2912 16.5434C33.6261 16.5434 36.4483 14.3966 36.4817 11.0743C36.4982 9.25126 35.3941 7.85438 33.0139 6.71292C31.5689 5.98017 30.684 5.48609 30.684 4.73636C30.7009 4.05479 31.4324 3.35668 33.0636 3.35668C34.4066 3.32249 35.3935 3.64607 36.141 3.96987L36.5147 4.13993L37.0765 0.681799Z" fill="#00579F"/>
<path d="M42.5677 10.6302C42.9079 9.71015 44.2171 6.14945 44.2171 6.14945C44.1999 6.18364 44.5567 5.21246 44.7607 4.61625L45.0494 5.99615C45.0494 5.99615 45.8317 9.82948 46.0016 10.6302C45.3559 10.6302 43.3837 10.6302 42.5677 10.6302ZM47.6673 0.289062H44.4717C43.4863 0.289062 42.7376 0.578447 42.3124 1.61779L36.1758 16.3033H40.5107C40.5107 16.3033 41.2244 14.3267 41.3778 13.901C41.8533 13.901 46.0703 13.901 46.6821 13.901C46.8007 14.4633 47.175 16.3033 47.175 16.3033H51.0003L47.6673 0.289062Z" fill="#00579F"/>
<path d="M14.5173 0.289062L10.4714 11.2094L10.0293 8.99461C9.28125 6.43906 6.93532 3.6625 4.31738 2.28192L8.02334 16.2865H12.3921L18.8859 0.289062H14.5173Z" fill="#00579F"/>
<path d="M6.71495 0.289062H0.068001L0 0.612639C5.18504 1.94159 8.61899 5.14498 10.0298 8.99529L8.58488 1.63522C8.34698 0.612413 7.61591 0.322801 6.71495 0.289062Z" fill="#FAA61A"/>
</svg>
