<svg width="31" height="18" viewBox="0 0 31 18" fill="none" xmlns="http://www.w3.org/2000/svg">
<path fill-rule="evenodd" clip-rule="evenodd" d="M30.2804 1.23889C30.5018 0.536935 30.2804 0.032969 29.247 0.032969H25.8333C25.5201 0.0178788 25.2098 0.0981056 24.9453 0.262553C24.6809 0.427001 24.4753 0.667543 24.3571 0.950908C23.3362 3.38138 21.9696 5.65958 20.2976 7.71845C19.5042 8.4924 19.1536 8.74438 18.7292 8.74438C18.3048 8.74438 18.194 8.4924 18.194 7.77245V1.22089C18.194 0.374946 17.9357 -0.00302858 17.2161 -0.00302858H11.828C11.7183 -0.0103602 11.6083 0.00409916 11.5045 0.0394728C11.4008 0.0748464 11.3055 0.130398 11.2244 0.202762C11.1433 0.275125 11.0781 0.362793 11.0328 0.460455C10.9875 0.558117 10.963 0.663738 10.9607 0.770919C10.9607 1.56287 12.1786 1.76085 12.3077 3.9927V8.87037C12.3077 9.9323 12.1232 10.1123 11.6804 10.1123C10.5363 10.1123 7.75 5.99057 6.14464 1.27489C5.73869 0.356947 5.425 -0.00302858 4.55774 -0.00302858H1.14405C0.166071 -0.00302858 0 0.446941 0 0.932908C0 1.79685 1.14405 6.15256 5.35119 11.9122C6.45383 13.6583 7.96889 15.1217 9.76977 16.18C11.5706 17.2384 13.605 17.861 15.703 17.9958C17.8619 17.9958 18.1202 17.5278 18.1202 16.7178V13.712C18.1202 12.7401 18.3232 12.5781 19.006 12.5781C19.6887 12.5781 20.3899 12.8481 22.4012 14.738C24.6893 16.9698 25.0768 17.9958 26.3685 17.9958H29.7452C30.7232 17.9958 31.1845 17.5098 30.9262 16.5919C30.2102 15.1445 29.2425 13.8292 28.0661 12.7041C27.2911 11.8222 26.1101 10.8142 25.7411 10.3463C25.372 9.87831 25.372 9.44633 25.7411 8.87037C25.7042 8.87037 29.8375 3.16476 30.2804 1.23889Z" fill="#787878"/>
</svg>
