<svg width="29" height="20" viewBox="0 0 29 20" fill="none" xmlns="http://www.w3.org/2000/svg">
   <path d="M28.3836 3.1538C28.2239 2.54885 27.9035 1.99592 27.4547 1.55107C27.0058 1.10621 26.4446 0.785261 25.8279 0.620756C22.0698 0.174222 18.2854 -0.0269775 14.4998 0.018495C10.7143 -0.0269775 6.92985 0.174222 3.1717 0.620756C2.55167 0.782534 1.9867 1.10227 1.53451 1.54731C1.08232 1.99235 0.759127 2.54672 0.597946 3.1538C0.185063 5.41624 -0.0151461 7.71085 -0.00017849 10.0089C-0.0155363 12.3078 0.190793 14.603 0.616072 16.8641C0.775696 17.469 1.09617 18.022 1.54499 18.4668C1.99381 18.9117 2.55501 19.2326 3.1717 19.3971C6.92985 19.8437 10.7143 20.0449 14.4998 19.9994C18.2854 20.0449 22.0698 19.8437 25.8279 19.3971C26.448 19.2354 27.0129 18.9156 27.4651 18.4706C27.9173 18.0255 28.2405 17.4712 28.4017 16.8641C28.8146 14.6017 29.0148 12.307 28.9998 10.0089C29.0152 7.71005 28.8089 5.41486 28.3836 3.1538ZM11.5273 14.2248V5.79312L19.1217 10.0089L11.5273 14.2248Z" fill="#787878"/>
</svg>